<svg width="340" height="266" viewBox="0 0 340 266" fill="none" xmlns="http://www.w3.org/2000/svg">
<rect width="293" height="216" fill="#050505"/>
<g clip-path="url(#clip0_0_1)">
<rect x="-26.25" y="-86.75" width="439.5" height="439.5" fill="url(#paint0_linear_0_1)"/>
</g>
<rect x="19.5" y="52.5" width="288" height="211" fill="#FAFAFA"/>
<rect x="19.5" y="52.5" width="288" height="211" stroke="#050505" stroke-width="5"/>
<path d="M76.944 89.568C77.2 89.056 77.68 88.8 78.384 88.8H89.52C89.84 88.8 90.096 88.928 90.288 89.184C90.544 89.376 90.672 89.632 90.672 89.952V154.848C90.672 155.168 90.544 155.456 90.288 155.712C90.096 155.904 89.84 156 89.52 156H78.288C77.968 156 77.68 155.904 77.424 155.712C77.232 155.456 77.136 155.168 77.136 154.848V111.744C77.136 111.488 77.072 111.36 76.944 111.36C76.816 111.36 76.688 111.456 76.56 111.648L69.072 124.896C68.752 125.408 68.496 125.664 68.304 125.664C68.112 125.664 67.856 125.408 67.536 124.896L60.048 111.648C59.92 111.456 59.792 111.36 59.664 111.36C59.536 111.36 59.472 111.488 59.472 111.744V154.848C59.472 155.168 59.344 155.456 59.088 155.712C58.896 155.904 58.64 156 58.32 156H47.088C46.768 156 46.48 155.904 46.224 155.712C46.032 155.456 45.936 155.168 45.936 154.848V89.952C45.936 89.632 46.032 89.376 46.224 89.184C46.48 88.928 46.768 88.8 47.088 88.8H58.128C58.768 88.8 59.248 89.056 59.568 89.568L68.112 104.832C68.304 105.088 68.496 105.088 68.688 104.832L76.944 89.568ZM127.042 156C126.274 156 125.858 155.648 125.794 154.944L124.258 145.728C124.258 145.408 124.066 145.248 123.682 145.248H111.49C111.106 145.248 110.914 145.408 110.914 145.728L109.378 154.944C109.314 155.648 108.898 156 108.13 156H96.8978C96.0658 156 95.7458 155.584 95.9378 154.752L110.05 89.856C110.178 89.152 110.594 88.8 111.298 88.8H124.258C124.962 88.8 125.378 89.152 125.506 89.856L139.522 154.752L139.618 155.136C139.618 155.712 139.266 156 138.562 156H127.042ZM112.834 134.304C112.834 134.624 112.962 134.784 113.218 134.784H121.858C122.178 134.784 122.306 134.624 122.242 134.304L117.73 108.096C117.666 107.904 117.57 107.808 117.442 107.808C117.314 107.808 117.218 107.904 117.154 108.096L112.834 134.304ZM172.586 89.952C172.586 89.632 172.682 89.376 172.874 89.184C173.13 88.928 173.418 88.8 173.738 88.8H184.874C185.194 88.8 185.45 88.928 185.642 89.184C185.898 89.376 186.026 89.632 186.026 89.952V154.848C186.026 155.168 185.898 155.456 185.642 155.712C185.45 155.904 185.194 156 184.874 156H172.202C171.562 156 171.146 155.68 170.954 155.04L159.05 117.888C158.986 117.696 158.858 117.632 158.666 117.696C158.538 117.696 158.474 117.792 158.474 117.984L158.57 154.848C158.57 155.168 158.442 155.456 158.186 155.712C157.994 155.904 157.738 156 157.418 156H146.282C145.962 156 145.674 155.904 145.418 155.712C145.226 155.456 145.13 155.168 145.13 154.848V89.952C145.13 89.632 145.226 89.376 145.418 89.184C145.674 88.928 145.962 88.8 146.282 88.8H158.858C159.498 88.8 159.914 89.12 160.106 89.76L172.106 126.912C172.17 127.104 172.266 127.2 172.394 127.2C172.586 127.136 172.682 127.008 172.682 126.816L172.586 89.952ZM221.899 89.952C221.899 89.632 221.995 89.376 222.187 89.184C222.443 88.928 222.731 88.8 223.051 88.8H234.187C234.507 88.8 234.763 88.928 234.955 89.184C235.211 89.376 235.339 89.632 235.339 89.952V154.848C235.339 155.168 235.211 155.456 234.955 155.712C234.763 155.904 234.507 156 234.187 156H221.515C220.875 156 220.459 155.68 220.267 155.04L208.363 117.888C208.299 117.696 208.171 117.632 207.979 117.696C207.851 117.696 207.787 117.792 207.787 117.984L207.883 154.848C207.883 155.168 207.755 155.456 207.499 155.712C207.307 155.904 207.051 156 206.731 156H195.595C195.275 156 194.987 155.904 194.731 155.712C194.539 155.456 194.443 155.168 194.443 154.848V89.952C194.443 89.632 194.539 89.376 194.731 89.184C194.987 88.928 195.275 88.8 195.595 88.8H208.171C208.811 88.8 209.227 89.12 209.419 89.76L221.419 126.912C221.483 127.104 221.579 127.2 221.707 127.2C221.899 127.136 221.995 127.008 221.995 126.816L221.899 89.952ZM256.619 155.904C256.299 155.904 256.011 155.808 255.755 155.616C255.563 155.36 255.467 155.072 255.467 154.752V129.792L255.371 129.216L241.931 90.144C241.867 90.016 241.835 89.856 241.835 89.664C241.835 89.088 242.187 88.8 242.891 88.8H254.699C255.403 88.8 255.851 89.12 256.043 89.76L261.995 112.704C262.059 112.896 262.155 112.992 262.283 112.992C262.411 112.992 262.507 112.896 262.571 112.704L268.523 89.76C268.715 89.12 269.163 88.8 269.867 88.8H281.675C282.059 88.8 282.347 88.928 282.539 89.184C282.731 89.376 282.763 89.696 282.635 90.144L269.099 129.216L269.003 129.792V154.752C269.003 155.072 268.875 155.36 268.619 155.616C268.427 155.808 268.171 155.904 267.851 155.904H256.619ZM49.168 233.256C47.7173 233.256 46.5013 232.787 45.52 231.848C44.5813 230.867 44.112 229.651 44.112 228.2C44.112 226.707 44.5813 225.491 45.52 224.552C46.4587 223.613 47.6747 223.144 49.168 223.144C50.6613 223.144 51.8773 223.613 52.816 224.552C53.7547 225.491 54.224 226.707 54.224 228.2C54.224 229.651 53.7333 230.867 52.752 231.848C51.8133 232.787 50.6187 233.256 49.168 233.256ZM64.566 233C64.0967 233 63.8193 232.765 63.734 232.296L55.094 189.032L55.03 188.776C55.03 188.392 55.2647 188.2 55.734 188.2H63.542C64.054 188.2 64.3313 188.435 64.374 188.904L68.022 211.944C68.0647 212.115 68.1287 212.2 68.214 212.2C68.2993 212.2 68.3633 212.115 68.406 211.944L71.862 188.904C71.9047 188.435 72.182 188.2 72.694 188.2H79.158C79.67 188.2 79.9473 188.435 79.99 188.904L83.766 211.944C83.8087 212.115 83.8727 212.2 83.958 212.2C84.0433 212.2 84.1073 212.115 84.15 211.944L87.414 188.904C87.4567 188.435 87.734 188.2 88.246 188.2H95.798C96.3527 188.2 96.5873 188.477 96.502 189.032L88.374 232.296C88.3313 232.765 88.054 233 87.542 233H80.63C80.118 233 79.8407 232.765 79.798 232.296L76.022 208.616C75.9793 208.445 75.9153 208.36 75.83 208.36C75.7447 208.36 75.6807 208.445 75.638 208.616L72.246 232.296C72.2033 232.765 71.926 233 71.414 233H64.566ZM111.917 233.512C107.991 233.512 104.855 232.36 102.509 230.056C100.162 227.752 98.9885 224.68 98.9885 220.84V200.36C98.9885 196.52 100.162 193.448 102.509 191.144C104.855 188.84 107.991 187.688 111.917 187.688C115.842 187.688 118.978 188.84 121.325 191.144C123.714 193.448 124.909 196.52 124.909 200.36V220.84C124.909 224.68 123.714 227.752 121.325 230.056C118.978 232.36 115.842 233.512 111.917 233.512ZM111.917 225.768C113.111 225.768 114.071 225.363 114.797 224.552C115.522 223.699 115.885 222.589 115.885 221.224V199.976C115.885 198.611 115.522 197.523 114.797 196.712C114.071 195.859 113.111 195.432 111.917 195.432C110.722 195.432 109.762 195.859 109.037 196.712C108.354 197.523 108.013 198.611 108.013 199.976V221.224C108.013 222.589 108.354 223.699 109.037 224.552C109.762 225.363 110.722 225.768 111.917 225.768ZM147.543 233C147.073 233 146.775 232.787 146.647 232.36L141.719 214.696C141.633 214.525 141.527 214.44 141.399 214.44H139.223C139.009 214.44 138.903 214.547 138.903 214.76V232.232C138.903 232.445 138.817 232.637 138.647 232.808C138.519 232.936 138.348 233 138.135 233H130.647C130.433 233 130.241 232.936 130.071 232.808C129.943 232.637 129.879 232.445 129.879 232.232V188.968C129.879 188.755 129.943 188.584 130.071 188.456C130.241 188.285 130.433 188.2 130.647 188.2H143.575C145.921 188.2 148.012 188.776 149.847 189.928C151.681 191.037 153.089 192.616 154.071 194.664C155.095 196.712 155.607 199.059 155.607 201.704C155.607 204.221 155.116 206.44 154.135 208.36C153.196 210.28 151.873 211.773 150.167 212.84C150.081 212.883 150.017 212.947 149.975 213.032C149.932 213.075 149.932 213.139 149.975 213.224L155.863 232.104L155.927 232.36C155.927 232.787 155.692 233 155.223 233H147.543ZM139.223 195.944C139.009 195.944 138.903 196.051 138.903 196.264V207.208C138.903 207.421 139.009 207.528 139.223 207.528H142.103C143.425 207.528 144.492 207.016 145.303 205.992C146.156 204.925 146.583 203.517 146.583 201.768C146.583 199.976 146.156 198.568 145.303 197.544C144.492 196.477 143.425 195.944 142.103 195.944H139.223ZM160.772 233C160.558 233 160.366 232.936 160.196 232.808C160.068 232.637 160.004 232.445 160.004 232.232V188.968C160.004 188.755 160.068 188.584 160.196 188.456C160.366 188.285 160.558 188.2 160.772 188.2H168.26C168.473 188.2 168.644 188.285 168.772 188.456C168.942 188.584 169.028 188.755 169.028 188.968V205.096C169.028 205.267 169.07 205.373 169.156 205.416C169.284 205.416 169.369 205.331 169.412 205.16L177.668 188.776C177.881 188.392 178.18 188.2 178.564 188.2H186.5C186.798 188.2 186.99 188.285 187.076 188.456C187.204 188.584 187.204 188.797 187.076 189.096L177.604 207.528C177.561 207.699 177.54 207.827 177.54 207.912L187.588 232.104C187.63 232.189 187.652 232.317 187.652 232.488C187.652 232.829 187.438 233 187.012 233H179.012C178.542 233 178.244 232.808 178.116 232.424L171.46 215.656C171.417 215.528 171.353 215.485 171.268 215.528C171.182 215.528 171.097 215.571 171.012 215.656L169.156 218.984C169.07 219.155 169.028 219.283 169.028 219.368V232.232C169.028 232.445 168.942 232.637 168.772 232.808C168.644 232.936 168.473 233 168.26 233H160.772Z" fill="#050505"/>
<defs>
<linearGradient id="paint0_linear_0_1" x1="448.071" y1="311.252" x2="-61.0707" y2="-45.2523" gradientUnits="userSpaceOnUse">
<stop stop-color="#FAFAFA"/>
<stop stop-color="#050505"/>
<stop offset="0.00482667" stop-color="#050505"/>
<stop offset="0.00482667" stop-color="#FAFAFA"/>
<stop offset="0.00965333" stop-color="#FAFAFA"/>
<stop offset="0.00965333" stop-color="#050505"/>
<stop offset="0.01448" stop-color="#050505"/>
<stop offset="0.01448" stop-color="#FAFAFA"/>
<stop offset="0.0193067" stop-color="#FAFAFA"/>
<stop offset="0.0193067" stop-color="#050505"/>
<stop offset="0.0241333" stop-color="#050505"/>
<stop offset="0.0241333" stop-color="#FAFAFA"/>
<stop offset="0.02896" stop-color="#FAFAFA"/>
<stop offset="0.02896" stop-color="#050505"/>
<stop offset="0.0337867" stop-color="#050505"/>
<stop offset="0.0337867" stop-color="#FAFAFA"/>
<stop offset="0.0386133" stop-color="#FAFAFA"/>
<stop offset="0.0386133" stop-color="#050505"/>
<stop offset="0.04344" stop-color="#050505"/>
<stop offset="0.04344" stop-color="#FAFAFA"/>
<stop offset="0.0482667" stop-color="#FAFAFA"/>
<stop offset="0.0482667" stop-color="#050505"/>
<stop offset="0.0530933" stop-color="#050505"/>
<stop offset="0.0530933" stop-color="#FAFAFA"/>
<stop offset="0.05792" stop-color="#FAFAFA"/>
<stop offset="0.05792" stop-color="#050505"/>
<stop offset="0.0627467" stop-color="#050505"/>
<stop offset="0.0627467" stop-color="#FAFAFA"/>
<stop offset="0.0675733" stop-color="#FAFAFA"/>
<stop offset="0.0675733" stop-color="#050505"/>
<stop offset="0.0724" stop-color="#050505"/>
<stop offset="0.0724" stop-color="#FAFAFA"/>
<stop offset="0.0772267" stop-color="#FAFAFA"/>
<stop offset="0.0772267" stop-color="#050505"/>
<stop offset="0.0820533" stop-color="#050505"/>
<stop offset="0.0820533" stop-color="#FAFAFA"/>
<stop offset="0.08688" stop-color="#FAFAFA"/>
<stop offset="0.08688" stop-color="#050505"/>
<stop offset="0.0917067" stop-color="#050505"/>
<stop offset="0.0917067" stop-color="#FAFAFA"/>
<stop offset="0.0965334" stop-color="#FAFAFA"/>
<stop offset="0.0965334" stop-color="#050505"/>
<stop offset="0.10136" stop-color="#050505"/>
<stop offset="0.10136" stop-color="#FAFAFA"/>
<stop offset="0.106187" stop-color="#FAFAFA"/>
<stop offset="0.106187" stop-color="#050505"/>
<stop offset="0.111013" stop-color="#050505"/>
<stop offset="0.111013" stop-color="#FAFAFA"/>
<stop offset="0.11584" stop-color="#FAFAFA"/>
<stop offset="0.11584" stop-color="#050505"/>
<stop offset="0.120667" stop-color="#050505"/>
<stop offset="0.120667" stop-color="#FAFAFA"/>
<stop offset="0.125493" stop-color="#FAFAFA"/>
<stop offset="0.125493" stop-color="#050505"/>
<stop offset="0.13032" stop-color="#050505"/>
<stop offset="0.13032" stop-color="#FAFAFA"/>
<stop offset="0.135147" stop-color="#FAFAFA"/>
<stop offset="0.135147" stop-color="#050505"/>
<stop offset="0.139973" stop-color="#050505"/>
<stop offset="0.139973" stop-color="#FAFAFA"/>
<stop offset="0.1448" stop-color="#FAFAFA"/>
<stop offset="0.1448" stop-color="#050505"/>
<stop offset="0.149627" stop-color="#050505"/>
<stop offset="0.149627" stop-color="#FAFAFA"/>
<stop offset="0.154453" stop-color="#FAFAFA"/>
<stop offset="0.154453" stop-color="#050505"/>
<stop offset="0.15928" stop-color="#050505"/>
<stop offset="0.15928" stop-color="#FAFAFA"/>
<stop offset="0.164107" stop-color="#FAFAFA"/>
<stop offset="0.164107" stop-color="#050505"/>
<stop offset="0.168933" stop-color="#050505"/>
<stop offset="0.168933" stop-color="#FAFAFA"/>
<stop offset="0.17376" stop-color="#FAFAFA"/>
<stop offset="0.17376" stop-color="#050505"/>
<stop offset="0.178587" stop-color="#050505"/>
<stop offset="0.178587" stop-color="#FAFAFA"/>
<stop offset="0.183413" stop-color="#FAFAFA"/>
<stop offset="0.183413" stop-color="#050505"/>
<stop offset="0.18824" stop-color="#050505"/>
<stop offset="0.18824" stop-color="#FAFAFA"/>
<stop offset="0.193067" stop-color="#FAFAFA"/>
<stop offset="0.193067" stop-color="#050505"/>
<stop offset="0.197893" stop-color="#050505"/>
<stop offset="0.197893" stop-color="#FAFAFA"/>
<stop offset="0.20272" stop-color="#FAFAFA"/>
<stop offset="0.20272" stop-color="#050505"/>
<stop offset="0.207547" stop-color="#050505"/>
<stop offset="0.207547" stop-color="#FAFAFA"/>
<stop offset="0.212373" stop-color="#FAFAFA"/>
<stop offset="0.212373" stop-color="#050505"/>
<stop offset="0.2172" stop-color="#050505"/>
<stop offset="0.2172" stop-color="#FAFAFA"/>
<stop offset="0.222027" stop-color="#FAFAFA"/>
<stop offset="0.222027" stop-color="#050505"/>
<stop offset="0.226853" stop-color="#050505"/>
<stop offset="0.226853" stop-color="#FAFAFA"/>
<stop offset="0.23168" stop-color="#FAFAFA"/>
<stop offset="0.23168" stop-color="#050505"/>
<stop offset="0.236507" stop-color="#050505"/>
<stop offset="0.236507" stop-color="#FAFAFA"/>
<stop offset="0.241333" stop-color="#FAFAFA"/>
<stop offset="0.241333" stop-color="#050505"/>
<stop offset="0.24616" stop-color="#050505"/>
<stop offset="0.24616" stop-color="#FAFAFA"/>
<stop offset="0.250987" stop-color="#FAFAFA"/>
<stop offset="0.250987" stop-color="#050505"/>
<stop offset="0.255813" stop-color="#050505"/>
<stop offset="0.255813" stop-color="#FAFAFA"/>
<stop offset="0.26064" stop-color="#FAFAFA"/>
<stop offset="0.26064" stop-color="#050505"/>
<stop offset="0.265467" stop-color="#050505"/>
<stop offset="0.265467" stop-color="#FAFAFA"/>
<stop offset="0.270293" stop-color="#FAFAFA"/>
<stop offset="0.270293" stop-color="#050505"/>
<stop offset="0.27512" stop-color="#050505"/>
<stop offset="0.27512" stop-color="#FAFAFA"/>
<stop offset="0.279947" stop-color="#FAFAFA"/>
<stop offset="0.279947" stop-color="#050505"/>
<stop offset="0.284773" stop-color="#050505"/>
<stop offset="0.284773" stop-color="#FAFAFA"/>
<stop offset="0.2896" stop-color="#FAFAFA"/>
<stop offset="0.2896" stop-color="#050505"/>
<stop offset="0.294427" stop-color="#050505"/>
<stop offset="0.294427" stop-color="#FAFAFA"/>
<stop offset="0.299253" stop-color="#FAFAFA"/>
<stop offset="0.299253" stop-color="#050505"/>
<stop offset="0.30408" stop-color="#050505"/>
<stop offset="0.30408" stop-color="#FAFAFA"/>
<stop offset="0.308907" stop-color="#FAFAFA"/>
<stop offset="0.308907" stop-color="#050505"/>
<stop offset="0.313733" stop-color="#050505"/>
<stop offset="0.313733" stop-color="#FAFAFA"/>
<stop offset="0.31856" stop-color="#FAFAFA"/>
<stop offset="0.31856" stop-color="#050505"/>
<stop offset="0.323387" stop-color="#050505"/>
<stop offset="0.323387" stop-color="#FAFAFA"/>
<stop offset="0.328213" stop-color="#FAFAFA"/>
<stop offset="0.328213" stop-color="#050505"/>
<stop offset="0.33304" stop-color="#050505"/>
<stop offset="0.33304" stop-color="#FAFAFA"/>
<stop offset="0.337867" stop-color="#FAFAFA"/>
<stop offset="0.337867" stop-color="#050505"/>
<stop offset="0.342693" stop-color="#050505"/>
<stop offset="0.342693" stop-color="#FAFAFA"/>
<stop offset="0.34752" stop-color="#FAFAFA"/>
<stop offset="0.34752" stop-color="#050505"/>
<stop offset="0.352347" stop-color="#050505"/>
<stop offset="0.352347" stop-color="#FAFAFA"/>
<stop offset="0.357173" stop-color="#FAFAFA"/>
<stop offset="0.357173" stop-color="#050505"/>
<stop offset="0.362" stop-color="#050505"/>
<stop offset="0.362" stop-color="#FAFAFA"/>
<stop offset="0.366827" stop-color="#FAFAFA"/>
<stop offset="0.366827" stop-color="#050505"/>
<stop offset="0.371653" stop-color="#050505"/>
<stop offset="0.371653" stop-color="#FAFAFA"/>
<stop offset="0.37648" stop-color="#FAFAFA"/>
<stop offset="0.37648" stop-color="#050505"/>
<stop offset="0.381307" stop-color="#050505"/>
<stop offset="0.381307" stop-color="#FAFAFA"/>
<stop offset="0.386133" stop-color="#FAFAFA"/>
<stop offset="0.386133" stop-color="#050505"/>
<stop offset="0.39096" stop-color="#050505"/>
<stop offset="0.39096" stop-color="#FAFAFA"/>
<stop offset="0.395787" stop-color="#FAFAFA"/>
<stop offset="0.395787" stop-color="#050505"/>
<stop offset="0.400613" stop-color="#050505"/>
<stop offset="0.400613" stop-color="#FAFAFA"/>
<stop offset="0.40544" stop-color="#FAFAFA"/>
<stop offset="0.40544" stop-color="#050505"/>
<stop offset="0.410267" stop-color="#050505"/>
<stop offset="0.410267" stop-color="#FAFAFA"/>
<stop offset="0.415093" stop-color="#FAFAFA"/>
<stop offset="0.415093" stop-color="#050505"/>
<stop offset="0.41992" stop-color="#050505"/>
<stop offset="0.41992" stop-color="#FAFAFA"/>
<stop offset="0.424747" stop-color="#FAFAFA"/>
<stop offset="0.424747" stop-color="#050505"/>
<stop offset="0.429573" stop-color="#050505"/>
<stop offset="0.429573" stop-color="#FAFAFA"/>
<stop offset="0.4344" stop-color="#FAFAFA"/>
<stop offset="0.4344" stop-color="#050505"/>
<stop offset="0.439227" stop-color="#050505"/>
<stop offset="0.439227" stop-color="#FAFAFA"/>
<stop offset="0.444053" stop-color="#FAFAFA"/>
<stop offset="0.444053" stop-color="#050505"/>
<stop offset="0.44888" stop-color="#050505"/>
<stop offset="0.44888" stop-color="#FAFAFA"/>
<stop offset="0.453707" stop-color="#FAFAFA"/>
<stop offset="0.453707" stop-color="#050505"/>
<stop offset="0.458533" stop-color="#050505"/>
<stop offset="0.458533" stop-color="#FAFAFA"/>
<stop offset="0.46336" stop-color="#FAFAFA"/>
<stop offset="0.46336" stop-color="#050505"/>
<stop offset="0.468187" stop-color="#050505"/>
<stop offset="0.468187" stop-color="#FAFAFA"/>
<stop offset="0.473013" stop-color="#FAFAFA"/>
<stop offset="0.473013" stop-color="#050505"/>
<stop offset="0.47784" stop-color="#050505"/>
<stop offset="0.47784" stop-color="#FAFAFA"/>
<stop offset="0.482667" stop-color="#FAFAFA"/>
<stop offset="0.482667" stop-color="#050505"/>
<stop offset="0.487493" stop-color="#050505"/>
<stop offset="0.487493" stop-color="#FAFAFA"/>
<stop offset="0.49232" stop-color="#FAFAFA"/>
<stop offset="0.49232" stop-color="#050505"/>
<stop offset="0.497147" stop-color="#050505"/>
<stop offset="0.497147" stop-color="#FAFAFA"/>
<stop offset="0.501973" stop-color="#FAFAFA"/>
<stop offset="0.501973" stop-color="#050505"/>
<stop offset="0.5068" stop-color="#050505"/>
<stop offset="0.5068" stop-color="#FAFAFA"/>
<stop offset="0.511627" stop-color="#FAFAFA"/>
<stop offset="0.511627" stop-color="#050505"/>
<stop offset="0.516453" stop-color="#050505"/>
<stop offset="0.516453" stop-color="#FAFAFA"/>
<stop offset="0.52128" stop-color="#FAFAFA"/>
<stop offset="0.52128" stop-color="#050505"/>
<stop offset="0.526107" stop-color="#050505"/>
<stop offset="0.526107" stop-color="#FAFAFA"/>
<stop offset="0.530933" stop-color="#FAFAFA"/>
<stop offset="0.530933" stop-color="#050505"/>
<stop offset="0.53576" stop-color="#050505"/>
<stop offset="0.53576" stop-color="#FAFAFA"/>
<stop offset="0.540587" stop-color="#FAFAFA"/>
<stop offset="0.540587" stop-color="#050505"/>
<stop offset="0.545413" stop-color="#050505"/>
<stop offset="0.545413" stop-color="#FAFAFA"/>
<stop offset="0.55024" stop-color="#FAFAFA"/>
<stop offset="0.55024" stop-color="#050505"/>
<stop offset="0.555067" stop-color="#050505"/>
<stop offset="0.555067" stop-color="#FAFAFA"/>
<stop offset="0.559893" stop-color="#FAFAFA"/>
<stop offset="0.559893" stop-color="#050505"/>
<stop offset="0.56472" stop-color="#050505"/>
<stop offset="0.56472" stop-color="#FAFAFA"/>
<stop offset="0.569547" stop-color="#FAFAFA"/>
<stop offset="0.569547" stop-color="#050505"/>
<stop offset="0.574373" stop-color="#050505"/>
<stop offset="0.574373" stop-color="#FAFAFA"/>
<stop offset="0.5792" stop-color="#FAFAFA"/>
<stop offset="0.5792" stop-color="#050505"/>
<stop offset="0.584027" stop-color="#050505"/>
<stop offset="0.584027" stop-color="#FAFAFA"/>
<stop offset="0.588853" stop-color="#FAFAFA"/>
<stop offset="0.588853" stop-color="#050505"/>
<stop offset="0.59368" stop-color="#050505"/>
<stop offset="0.59368" stop-color="#FAFAFA"/>
<stop offset="0.598507" stop-color="#FAFAFA"/>
<stop offset="0.598507" stop-color="#050505"/>
<stop offset="0.603333" stop-color="#050505"/>
<stop offset="0.603333" stop-color="#FAFAFA"/>
<stop offset="0.60816" stop-color="#FAFAFA"/>
<stop offset="0.60816" stop-color="#050505"/>
<stop offset="0.612987" stop-color="#050505"/>
<stop offset="0.612987" stop-color="#FAFAFA"/>
<stop offset="0.617813" stop-color="#FAFAFA"/>
<stop offset="0.617813" stop-color="#050505"/>
<stop offset="0.62264" stop-color="#050505"/>
<stop offset="0.62264" stop-color="#FAFAFA"/>
<stop offset="0.627467" stop-color="#FAFAFA"/>
<stop offset="0.627467" stop-color="#050505"/>
<stop offset="0.632293" stop-color="#050505"/>
<stop offset="0.632293" stop-color="#FAFAFA"/>
<stop offset="0.63712" stop-color="#FAFAFA"/>
<stop offset="0.63712" stop-color="#050505"/>
<stop offset="0.641947" stop-color="#050505"/>
<stop offset="0.641947" stop-color="#FAFAFA"/>
<stop offset="0.646773" stop-color="#FAFAFA"/>
<stop offset="0.646773" stop-color="#050505"/>
<stop offset="0.6516" stop-color="#050505"/>
<stop offset="0.6516" stop-color="#FAFAFA"/>
<stop offset="0.656427" stop-color="#FAFAFA"/>
<stop offset="0.656427" stop-color="#050505"/>
<stop offset="0.661253" stop-color="#050505"/>
<stop offset="0.661253" stop-color="#FAFAFA"/>
<stop offset="0.66608" stop-color="#FAFAFA"/>
<stop offset="0.66608" stop-color="#050505"/>
<stop offset="0.670907" stop-color="#050505"/>
<stop offset="0.670907" stop-color="#FAFAFA"/>
<stop offset="0.675733" stop-color="#FAFAFA"/>
<stop offset="0.675733" stop-color="#050505"/>
<stop offset="0.68056" stop-color="#050505"/>
<stop offset="0.68056" stop-color="#FAFAFA"/>
<stop offset="0.685387" stop-color="#FAFAFA"/>
<stop offset="0.685387" stop-color="#050505"/>
<stop offset="0.690213" stop-color="#050505"/>
<stop offset="0.690213" stop-color="#FAFAFA"/>
<stop offset="0.69504" stop-color="#FAFAFA"/>
<stop offset="0.69504" stop-color="#050505"/>
<stop offset="0.699867" stop-color="#050505"/>
<stop offset="0.699867" stop-color="#FAFAFA"/>
<stop offset="0.704693" stop-color="#FAFAFA"/>
<stop offset="0.704693" stop-color="#050505"/>
<stop offset="0.70952" stop-color="#050505"/>
<stop offset="0.70952" stop-color="#FAFAFA"/>
<stop offset="0.714347" stop-color="#FAFAFA"/>
<stop offset="0.714347" stop-color="#050505"/>
<stop offset="0.719173" stop-color="#050505"/>
<stop offset="0.719173" stop-color="#FAFAFA"/>
<stop offset="0.724" stop-color="#FAFAFA"/>
<stop offset="0.724" stop-color="#050505"/>
<stop offset="0.728827" stop-color="#050505"/>
<stop offset="0.728827" stop-color="#FAFAFA"/>
<stop offset="0.733653" stop-color="#FAFAFA"/>
<stop offset="0.733653" stop-color="#050505"/>
<stop offset="0.73848" stop-color="#050505"/>
<stop offset="0.73848" stop-color="#FAFAFA"/>
<stop offset="0.743307" stop-color="#FAFAFA"/>
<stop offset="0.743307" stop-color="#050505"/>
<stop offset="0.748133" stop-color="#050505"/>
<stop offset="0.748133" stop-color="#FAFAFA"/>
<stop offset="0.75296" stop-color="#FAFAFA"/>
<stop offset="0.75296" stop-color="#050505"/>
<stop offset="0.757787" stop-color="#050505"/>
<stop offset="0.757787" stop-color="#FAFAFA"/>
<stop offset="0.762613" stop-color="#FAFAFA"/>
<stop offset="0.762613" stop-color="#050505"/>
<stop offset="0.76744" stop-color="#050505"/>
<stop offset="0.76744" stop-color="#FAFAFA"/>
<stop offset="0.772267" stop-color="#FAFAFA"/>
<stop offset="0.772267" stop-color="#050505"/>
<stop offset="0.777093" stop-color="#050505"/>
<stop offset="0.777093" stop-color="#FAFAFA"/>
<stop offset="0.78192" stop-color="#FAFAFA"/>
<stop offset="0.78192" stop-color="#050505"/>
<stop offset="0.786747" stop-color="#050505"/>
<stop offset="0.786747" stop-color="#FAFAFA"/>
<stop offset="0.791573" stop-color="#FAFAFA"/>
<stop offset="0.791573" stop-color="#050505"/>
<stop offset="0.7964" stop-color="#050505"/>
<stop offset="0.7964" stop-color="#FAFAFA"/>
<stop offset="0.801227" stop-color="#FAFAFA"/>
<stop offset="0.801227" stop-color="#050505"/>
<stop offset="0.806053" stop-color="#050505"/>
<stop offset="0.806053" stop-color="#FAFAFA"/>
<stop offset="0.81088" stop-color="#FAFAFA"/>
<stop offset="0.81088" stop-color="#050505"/>
<stop offset="0.815707" stop-color="#050505"/>
<stop offset="0.815707" stop-color="#FAFAFA"/>
<stop offset="0.820533" stop-color="#FAFAFA"/>
<stop offset="0.820533" stop-color="#050505"/>
<stop offset="0.82536" stop-color="#050505"/>
<stop offset="0.82536" stop-color="#FAFAFA"/>
<stop offset="0.830187" stop-color="#FAFAFA"/>
<stop offset="0.830187" stop-color="#050505"/>
<stop offset="0.835013" stop-color="#050505"/>
<stop offset="0.835013" stop-color="#FAFAFA"/>
<stop offset="0.83984" stop-color="#FAFAFA"/>
<stop offset="0.83984" stop-color="#050505"/>
<stop offset="0.844667" stop-color="#050505"/>
<stop offset="0.844667" stop-color="#FAFAFA"/>
<stop offset="0.849493" stop-color="#FAFAFA"/>
<stop offset="0.849493" stop-color="#050505"/>
<stop offset="0.85432" stop-color="#050505"/>
<stop offset="0.85432" stop-color="#FAFAFA"/>
<stop offset="0.859147" stop-color="#FAFAFA"/>
<stop offset="0.859147" stop-color="#050505"/>
<stop offset="0.863973" stop-color="#050505"/>
<stop offset="0.863973" stop-color="#FAFAFA"/>
<stop offset="0.8688" stop-color="#FAFAFA"/>
<stop offset="0.8688" stop-color="#050505"/>
<stop offset="0.873627" stop-color="#050505"/>
<stop offset="0.873627" stop-color="#FAFAFA"/>
<stop offset="0.878453" stop-color="#FAFAFA"/>
<stop offset="0.878453" stop-color="#050505"/>
<stop offset="0.88328" stop-color="#050505"/>
<stop offset="0.88328" stop-color="#FAFAFA"/>
<stop offset="0.888107" stop-color="#FAFAFA"/>
<stop offset="0.888107" stop-color="#050505"/>
<stop offset="0.892933" stop-color="#050505"/>
<stop offset="0.892933" stop-color="#FAFAFA"/>
<stop offset="0.89776" stop-color="#FAFAFA"/>
<stop offset="0.89776" stop-color="#050505"/>
<stop offset="0.902587" stop-color="#050505"/>
<stop offset="0.902587" stop-color="#FAFAFA"/>
<stop offset="0.907413" stop-color="#FAFAFA"/>
<stop offset="0.907413" stop-color="#050505"/>
<stop offset="0.91224" stop-color="#050505"/>
<stop offset="0.91224" stop-color="#FAFAFA"/>
<stop offset="0.917067" stop-color="#FAFAFA"/>
<stop offset="0.917067" stop-color="#050505"/>
<stop offset="0.921893" stop-color="#050505"/>
<stop offset="0.921893" stop-color="#FAFAFA"/>
<stop offset="0.92672" stop-color="#FAFAFA"/>
<stop offset="0.92672" stop-color="#050505"/>
<stop offset="0.931547" stop-color="#050505"/>
<stop offset="0.931547" stop-color="#FAFAFA"/>
<stop offset="0.936373" stop-color="#FAFAFA"/>
<stop offset="0.936373" stop-color="#050505"/>
<stop offset="0.9412" stop-color="#050505"/>
<stop offset="0.9412" stop-color="#FAFAFA"/>
<stop offset="0.946027" stop-color="#FAFAFA"/>
<stop offset="0.946027" stop-color="#050505"/>
<stop offset="0.950853" stop-color="#050505"/>
<stop offset="0.950853" stop-color="#FAFAFA"/>
<stop offset="0.95568" stop-color="#FAFAFA"/>
<stop offset="0.95568" stop-color="#050505"/>
<stop offset="0.960507" stop-color="#050505"/>
<stop offset="0.960507" stop-color="#FAFAFA"/>
<stop offset="0.965333" stop-color="#FAFAFA"/>
<stop offset="0.965333" stop-color="#050505"/>
<stop offset="0.97016" stop-color="#050505"/>
<stop offset="0.97016" stop-color="#FAFAFA"/>
<stop offset="0.974987" stop-color="#FAFAFA"/>
<stop offset="0.974987" stop-color="#050505"/>
<stop offset="0.979814" stop-color="#050505"/>
<stop offset="0.979814" stop-color="#FAFAFA"/>
<stop offset="0.98464" stop-color="#FAFAFA"/>
<stop offset="0.98464" stop-color="#050505"/>
<stop offset="0.989467" stop-color="#050505"/>
<stop offset="0.989467" stop-color="#FAFAFA"/>
<stop offset="0.994294" stop-color="#FAFAFA"/>
<stop offset="0.994294" stop-color="#050505"/>
<stop offset="0.99912" stop-color="#050505"/>
<stop offset="0.99912" stop-color="#FAFAFA"/>
</linearGradient>
<clipPath id="clip0_0_1">
<rect width="293" height="216" fill="white" transform="translate(47 25)"/>
</clipPath>
</defs>
</svg>
